<svg width="57" height="57" viewBox="0 0 57 57" fill="none" xmlns="http://www.w3.org/2000/svg">
<path d="M42.7984 45.4666L44.6266 43.6507C53.0847 43.927 53.2147 43.6304 53.5864 42.761L55.9102 37.104L56.0828 36.5677L55.8939 36.0985C55.7944 35.8507 55.4877 35.1113 50.2064 30.0759V27.4271C56.3002 21.5568 56.1702 21.2562 55.8228 20.397L53.5092 14.681C53.1619 13.8238 53.0298 13.4887 44.6327 13.7182L42.8045 11.8291C42.9932 9.04654 42.8973 6.25194 42.5181 3.48883L42.2825 2.95461L36.2416 0.313989C35.3519 -0.0922608 35.0391 -0.238511 29.3353 5.97305L26.7719 5.93446C20.8995 -0.333979 20.6212 -0.22023 19.7417 0.135239L14.1253 2.40618C13.2458 2.76165 12.935 2.88758 13.2763 11.4188L11.4623 13.2266C3.00828 12.9504 2.87828 13.251 2.51063 14.1163L0.182813 19.7754L0 20.3177L0.190938 20.789C0.290469 21.0327 0.585001 21.764 5.87844 26.8056V29.4462C-0.215312 35.3165 -0.0832812 35.6171 0.266094 36.4784L2.57766 42.2004C2.93109 43.0759 3.05703 43.3866 11.4522 43.1673L13.2803 45.0665C13.0908 47.8448 13.1841 50.6352 13.5586 53.3946L13.7942 53.9329L19.8738 56.5898C20.7573 56.9595 21.0641 57.0915 26.7516 50.9023L29.315 50.9348C35.1955 57.2113 35.4961 57.0895 36.3553 56.7421L41.9595 54.4773C42.8452 54.1259 43.1539 54.002 42.7984 45.4666V45.4666ZM18.7119 32.2148C18.0031 30.3624 17.8572 28.3419 18.2924 26.4069C18.7276 24.4719 19.7247 22.7085 21.1584 21.338C22.5921 19.9675 24.3986 19.051 26.3513 18.7034C28.3039 18.3558 30.3158 18.5926 32.1343 19.3842C33.9529 20.1758 35.4972 21.4868 36.5734 23.1527C37.6497 24.8187 38.2099 26.7654 38.1839 28.7486C38.1579 30.7318 37.5467 32.6632 36.4271 34.3003C35.3075 35.9374 33.7293 37.2075 31.8906 37.951C29.3819 38.9321 26.5867 38.8793 24.1168 37.8042C21.6469 36.7291 19.7034 34.7194 18.7119 32.2148V32.2148Z" fill="#102E4A"/>
</svg>
