<svg width="54" height="61" viewBox="0 0 54 61" fill="none" xmlns="http://www.w3.org/2000/svg">
<path d="M22.7314 0C18.564 0 15.1543 3.40971 15.1543 7.57714H7.57714C3.40971 7.57714 0 10.9869 0 15.1543H53.04C53.04 10.9869 49.6303 7.57714 45.4629 7.57714H37.8857C37.8857 3.40971 34.476 0 30.3086 0H22.7314ZM7.57714 22.7314V59.1775C7.57714 60.011 8.18332 60.6171 9.0168 60.6171H44.099C44.9325 60.6171 45.5386 60.011 45.5386 59.1775V22.7314H37.9615V49.2514C37.9615 51.373 36.2945 53.04 34.1729 53.04C32.0513 53.04 30.3843 51.373 30.3843 49.2514V22.7314H22.8072V49.2514C22.8072 51.373 21.1402 53.04 19.0186 53.04C16.897 53.04 15.2301 51.373 15.2301 49.2514V22.7314H7.65291H7.57714Z" fill="#8D9EC6"/>
</svg>
