<svg width="54" height="54" viewBox="0 0 54 54" fill="none" xmlns="http://www.w3.org/2000/svg">
<path d="M22.9968 0.0657052C10.3157 0.0657052 0 10.3814 0 23.0625C0 35.7436 10.3157 46.0593 22.9968 46.0593C26.8734 46.0593 30.6843 45.1394 33.9039 43.3654C34.1617 43.6758 34.4477 43.9617 34.758 44.2196L41.3285 50.7901C41.9352 51.4728 42.6751 52.0242 43.5026 52.4106C44.3302 52.797 45.228 53.0102 46.1409 53.0371C47.0538 53.064 47.9626 52.904 48.8114 52.5669C49.6603 52.2299 50.4312 51.7229 51.0771 51.0771C51.7229 50.4312 52.2299 49.6603 52.5669 48.8114C52.904 47.9626 53.064 47.0538 53.0371 46.1409C53.0102 45.228 52.797 44.3302 52.4106 43.5026C52.0242 42.6751 51.4728 41.9352 50.7901 41.3285L44.2196 34.758C43.8995 34.4379 43.5472 34.1516 43.1683 33.9039C44.9423 30.6843 46.0593 26.9391 46.0593 22.9968C46.0593 10.3157 35.7436 0 23.0625 0L22.9968 0.0657052ZM22.9968 6.63622C32.1298 6.63622 39.4231 13.9295 39.4231 23.0625C39.4231 27.3991 37.8462 31.4071 35.0866 34.3638C35.0208 34.4295 34.9551 34.4952 34.8894 34.5609C34.5791 34.8188 34.2932 35.1047 34.0353 35.4151C31.1442 38.0433 27.2019 39.5545 22.9311 39.5545C13.7981 39.5545 6.50481 32.2612 6.50481 23.1282C6.50481 13.9952 13.7981 6.70193 22.9311 6.70193L22.9968 6.63622Z" fill="#8D9EC6"/>
</svg>
